<?xml version="1.0" encoding="utf-8"?>
<!-- Generator: Adobe Illustrator 20.1.0, SVG Export Plug-In . SVG Version: 6.00 Build 0)  -->
<svg version="1.1" id="Calque_1" xmlns="http://www.w3.org/2000/svg" xmlns:xlink="http://www.w3.org/1999/xlink" x="0px" y="0px"
	 viewBox="0 0 432 432" style="enable-background:new 0 0 432 432;" xml:space="preserve">
<style type="text/css">
	.st0{fill:#EC5F62;}
	.st1{fill:#C9973C;}
	.st2{fill:#C9973D;}
	.st3{fill:#CC7B26;}
	.st4{fill:#B36927;}
	.st5{fill:#E83F3F;}
	.st6{fill:#FED173;}
	.st7{fill:#FDD98C;}
	.st8{fill:#F1F2F2;}
	.st9{fill:#F7A52D;}
	.st10{fill:#E94871;}
	.st11{fill-rule:evenodd;clip-rule:evenodd;fill:#C9973D;}
	.st12{fill:#CB9B3F;}
	.st13{fill:#3AAA35;}
	.st14{fill:#E30613;}
	.st15{fill:#E94374;}
	.st16{fill:#F08898;}
	.st17{fill:#79BD6E;}
	.st18{fill:#F7A645;}
	.st19{fill-rule:evenodd;clip-rule:evenodd;fill:#CB9A3E;}
	.st20{fill:#CB9A3E;}
	.st21{fill:#BE1622;}
	.st22{fill:#936037;}
</style>
<g>
	<g>
		<g>
			<path d="M193.3,197.1c-0.2-0.2-0.4,0-0.5,0.2c0,0,0,0,0,0c-0.2,0.4-0.4,0.6-0.5,0.9c-0.3,0.4-0.7,0.6-1.1,0.7
				c-0.5,0.1-0.9,0.2-1.3,0.2c-0.5,0-1.1,0-1.6,0c-0.7,0-1.4-0.1-2.1-0.2c-0.2,0-0.5-0.1-0.7-0.2c0,0,0-0.1-0.1-0.1
				c0-0.7-0.1-1.4-0.1-2.1c0-0.6-0.1-4.8-0.1-6.4l0.1-3c0-0.7,0-1.6,0.1-2.4c0-0.7,0.1-1.4,0.2-2.1c0-0.8,0-1.5,0.1-2.3
				c0-0.6,0-1.1,0-1.7c0-0.3,0-0.5,0.2-0.8c0.1,0,0.2-0.1,0.3-0.1c0.3,0,0.6-0.1,0.9,0c0.2,0,0.3-0.2,0.4-0.3c0.1-0.1,0.1-0.2,0-0.3
				c-0.1-0.1-0.4-0.2-0.5-0.2c-0.2,0-0.4,0-0.5,0c-0.2,0-0.4,0-0.6,0l-1.4,0.1c-0.4,0-0.8,0-1.2,0c-0.7,0-1.4,0-2.1,0h-0.7
				c-0.2,0-0.4,0-0.6,0c-0.2,0-0.4,0.1-0.5,0.2c-0.1,0.1-0.1,0.2,0,0.4c0.2,0.2,0.4,0.2,0.6,0.2h0.9c0.2,0.1,0.3,0.2,0.3,0.4
				c0.1,0.4,0.1,0.9,0.1,1.3c-0.1,1.4-0.1,2.7-0.2,4c0,0.6,0,1.1-0.1,1.7c0,0.9-0.1,1.7-0.1,2.7c0,0.8-0.1,1.6,0,2.4
				c0,1.2-0.2,6.3-0.2,6.7c0,0.4,0,0.9-0.1,1.2c-0.1,0-0.1,0.1-0.1,0.1h-0.6c-0.2,0-0.4,0.1-0.5,0.2c-0.3,0.1-0.4,0.6,0,0.8
				c0.1,0.1,0.2,0.1,0.4,0.1c0.2,0,0.4,0,0.5,0c0.8,0,1.6,0,2.5,0.1l3.1,0.4c0.2,0,0.4,0.1,0.7,0.1c0.5,0.1,0.9,0.1,1.3,0
				c0.5,0,0.9,0.1,1.3,0c0.5,0,0.9,0,1.3,0c0.3,0,0.6-0.1,0.9-0.1c0.5,0,0.9-0.3,1.2-0.6c0.5-0.4,0.7-1,1.1-1.5
				C193.7,197.5,193.6,197.3,193.3,197.1z"/>
			<path d="M210.8,197.4c-0.2,0-0.3,0-0.4,0.2c-0.2,0.1-0.4,0.4-0.4,0.5c-0.2,0.5-0.6,0.7-1.1,0.9c-0.2,0.1-0.4,0.2-0.7,0.2
				c-0.7,0.2-1.6,0.2-2.3,0.1c-1.2,0-2.5-0.1-3.8-0.2c-0.5,0-0.5-0.2-0.5-0.7c-0.1-0.4,0-0.6,0-0.9c0-1,0-2,0.1-3
				c0-0.9,0.1-1.8,0.1-2.7c0-0.5,0-1,0-1.6c0-0.2,0-0.5,0-0.5c0.4-0.1,1.1,0,1.4-0.1l3.3,0.1h0.1c0.2,0,0.3-0.2,0.4-0.3
				c0.1-0.2,0-0.3-0.1-0.5c-0.2-0.2-0.4-0.1-0.7-0.1c-1.2,0.2-2.6,0-3.9,0c-0.3,0-0.4-0.2-0.4-0.4c0-0.3,0-0.5,0-0.7
				c0-1,0.1-2,0.2-3.1l0.3-4c0-0.6,0-1.1,0.1-1.7c0-0.3,0-0.4,0.1-0.4h1.9c1.7-0.1,3.3-0.2,5,0c0.4,0,0.5-0.1,0.7-0.4
				c0.1-0.1,0.1-0.2,0-0.4c-0.1-0.1-0.3-0.2-0.6-0.2c-1.6,0.2-3.1,0-4.2,0.2c-1,0-2.1,0-3.1,0c-0.3,0-3.3,0.2-4.8,0.2
				c-0.5,0-1,0-1.5,0.1c-0.2,0-0.2,0-0.3,0c-0.1,0.1-0.1,0.2-0.2,0.4c0,0.1,0.1,0.2,0.2,0.2c0.2,0,0.3,0,0.6,0c0.4,0,0.7,0,1.1,0
				c0,0.8-0.4,12.2-0.4,13c-0.1,1.7-0.1,3.4-0.2,5.1c0,0.8,0,1.6,0.1,2.4v0.4c0.1,0.3,0.3,0.5,0.6,0.5l2.1-0.1c0.8,0,1.7,0,2.4,0
				c0.8,0,1.3,0,2.1,0.1c1.2,0.1,2.4,0.1,3.6,0c1.1,0,2-0.5,2.8-1.1c0.3-0.4,0.4-0.7,0.5-1.1C211.1,197.6,211,197.5,210.8,197.4z"/>
			<path d="M224.8,177.6l-3.4,0c-0.5,0-0.9,0-1.3,0c-0.5,0.1-5.9,0.1-6.6,0.2l-0.2,0.1c-0.2,0-0.4,0.2-0.4,0.4
				c0,0.1,0.1,0.3,0.3,0.4c0.1,0,0.2,0,0.2,0h4c0,0,0,0.1,0,0.1c0,0.9-0.1,4.9-0.2,5.8c0,0.3,0,4-0.1,4.9c0,1-0.1,1.9-0.1,2.8
				l-0.1,6.9c0,0.3,0.2,1.1,0.7,1c1.1-0.1,2.1,0.1,3.4,0c0.4,0,0-1.2,0-1.4l0-1.4c0-0.3,0-0.4,0.2-3.7c0-0.4,0-0.7,0-1.1
				c0-0.5,0.3-8,0.3-8.9c0-0.6,0.1-1.1,0.1-1.7c0-0.3,0-0.6,0.1-0.9c0-0.7,0.1-1.4,0.2-2.2c0-0.1,0-0.1,0.1-0.2
				c0.1,0,0.2-0.1,0.2-0.1h3.6c0.3,0,0.4-0.2,0.5-0.5C226.4,177.5,225.6,177.7,224.8,177.6z"/>
			<path d="M232.5,177.6c-0.1-0.2-0.3-0.3-0.4-0.4c-0.2-0.1-0.4-0.1-0.5,0.1c-0.2,0.2-0.2,0.2-0.1,0.5c0.1,0.1,0.2,0.4,0.2,0.5
				c0,0.4,0,0.8,0,1.1c0,0.1,0,0.2,0,0.3c0,0.3,0.2,0.4,0.4,0.2c0.4-0.3,0.6-0.7,0.7-1.1c0.1-0.2,0-0.5,0-0.7
				C232.7,178,232.6,177.8,232.5,177.6z"/>
			<path d="M249.8,178.7c-0.4-0.7-0.9-1.2-1.7-1.7l-0.6-0.3c-0.8-0.4-4-1.1-7.1,2.1c-0.5,0.6-0.9,1-1.1,1.9c-0.3,0.5-1.6,3.7,0,6.4
				c0.3,0.6,0.7,1.2,1.3,1.7c1.9,1.3,2.3,1.4,2.6,1.6c0.3,0.1,0.5,0.2,0.7,0.3c0.7,0.3,1.7,0.6,2.3,1.8c0.5,1.2,0.4,2.5-0.6,3.7
				c-0.4,0.6-1,1.1-1.5,1.5c-0.8,0.6-1.6,1-2.6,1.3c-0.2,0-0.3,0-0.5,0c-0.7,0-2.3-1-2.6-2.3c0-0.2,0-0.3-0.1-0.4v0c0,0,0,0,0-0.1
				c0-0.1,0-0.1,0-0.2c-0.2-0.1-0.3-0.1-0.4-0.1c-0.2,0-0.3,0.1-0.3,0.3c0,0.1,0,0.2,0,0.2c0,0.3,0,0.5,0.1,0.8l0.1,0.2
				c0.6,1.6,1.7,2.3,3.4,3.1l0.2,0.1c1.4,0.4,3.3,0.3,5.2-0.4c2.5-1,4.6-4.2,3.7-7.2v0c-0.6-1.5-1.8-2.4-3.3-2.5
				c-1.1-0.2-2.3-0.5-3.5-0.9c-1.1-0.5-1.7-1.1-2.1-2c-0.4-1-0.6-2-0.2-3c1.1-3.2,3.5-4.6,4.7-5.2c0.4-0.2,0.8-0.2,1.2-0.2
				c0.4,0,0.7,0.1,1.2,0.3c0.8,0.4,1.5,1,1.3,2.9c0,0.5-0.2,1.1-0.6,1.6v0.1c-0.2,0.2,0.1,0.9,0.6,0.4l0.2-0.2l0.2-0.2
				c0.3-0.6,0.4-1.2,0.5-1.8c0-0.1,0-0.2,0-0.3C250.8,180.8,250.5,179.6,249.8,178.7z"/>
		</g>
		<path d="M356.9,213.6c-0.9,2.5-2.3,5.6-4.1,9.2c-1.8,3.6-3.9,6.9-6.4,9.8c-1.2,1.4-2.4,2.5-3.7,3.5c-1.3,0.9-2.5,1.5-3.6,1.7
			c-1.7,0.3-3.1-0.5-4.1-2.3c-1-1.8-1.8-4.2-2.4-7.4c-0.6-3.2-0.9-6.9-0.9-11.1c0-4.2,0.1-8.7,0.4-13.4c2.2-2.3,4.5-4.8,6.9-7.5
			c2.4-2.7,4.7-5.5,6.9-8.3c2-2.5,3.8-5,5.5-7.5c1.7-2.5,3.2-4.9,4.4-7.2c0.7-1.4,1.2-2.7,1.7-3.9c0.4-1.2,0.7-2.5,0.9-3.7
			c0.3-1.7,0.3-3.3,0.1-4.7c-0.2-1.4-0.5-2.7-0.9-3.9c-1.1-2.7-2.6-4.4-4.5-5.3c-0.6-0.3-1.3-0.6-2.2-0.8c-2.2-0.3-4.4,0-6.4,1
			c-2,1-3.9,2.6-5.5,4.6c-1.7,2.1-3.2,4.5-4.6,7.5c-1.4,2.9-2.7,6.1-3.8,9.6c-1.1,3.6-2.1,7.4-2.8,11.5c-0.8,4.1-1.4,8.2-1.8,12.3
			c-0.4,4.1-0.7,8.1-0.8,12.1c-0.1,3.9,0,7.7,0.4,11.2c0,0,0,0.1,0,0.1c-0.5,0.9-1,1.8-1.5,2.6c-1.7,2.7-3.3,4.8-5,6.6
			c-2.1,2.4-4.2,4-6.1,4.9c-1.9,0.9-3.5,1.3-4.7,1.3c-1.9,0-3.5-0.8-4.9-2.3c-0.5-0.6-0.9-1.3-1.3-2c-0.3-0.7-0.6-1.5-0.9-2.4
			c-0.6-1.7-0.9-3.6-0.9-5.8c0-0.3,0-0.7,0-1c0-0.3,0-0.7,0.1-1c2.7-0.1,5.1-0.5,7.1-1.2c2-0.7,3.6-1.6,4.8-2.7
			c0.9-0.7,1.5-1.4,2.1-2.3c0.5-0.8,0.9-1.7,1.3-2.5c0.5-1.6,0.6-3.3,0.1-4.9c-0.4-1.5-1.2-2.7-2.3-3.5c-1.9-1.1-3.9-1.4-6.1-0.7
			c-2.2,0.6-4.2,1.8-6.2,3.5c-1.9,1.7-3.6,3.6-5,5.9c-1.4,2.2-2.3,4.4-2.6,6.4c-0.1,0.7-0.2,1.4-0.3,2c-0.5,0.7-1,1.3-1.5,1.9
			c-2.4,2.6-5.1,4.6-8,6c-3.4,1.5-6.9,2.1-10.3,1.8c-0.2-0.1-0.4-0.1-0.8-0.1c0.9-2.4,1.8-4.7,2.6-7c0.8-2.3,1.5-4.4,2.2-6.4
			c0.6-2,1.2-3.8,1.7-5.3c0.5-1.5,0.8-2.7,1-3.6c1.5-6.6,1.9-12,1.5-16.1c-0.5-4.1-1.5-7.2-3-9.3c-2-2.4-4.3-3.5-7.1-3.3
			c-2.5,0.1-5.1,1.2-7.8,3.5c-3,2.5-5.5,6.2-7.6,11c-2.1,4.8-2.8,10.4-2.3,16.8c0.3,4.3,1.3,7.9,2.9,10.9c1.6,3,3.5,5.4,5.9,7.2
			c1,0.9,2.1,1.6,3.2,2.1c1.1,0.6,2.3,1.1,3.5,1.5c-1.3,3.2-2.7,6.3-4.1,9.4c-1.2,2.5-2.4,4.7-3.5,6.5c-1.2,1.8-2.2,3.2-3.2,4.2
			c-0.9,1-1.8,0.7-2.8-0.9c-1-1.6-2.1-4-3.1-7.1c-1-3.1-2-6.7-3-10.7c-0.9-4-1.8-7.8-2.5-11.6c-0.7-3.7-1.3-7-1.8-9.8
			c-0.5-2.8-0.7-4.7-0.7-5.5l-6.2,0.3c0.1,1.4,0.3,3.5,0.6,6.4c0.1,1.4,0.3,2.9,0.6,4.5c-0.2,0.5-0.5,1.1-0.7,1.6
			c-1.2,2.6-2.6,5.2-4.1,7.8c-1.5,2.7-3.1,5.2-4.8,7.5c-1.7,2.4-3.3,4.2-5,5.6c-1.3,1.2-2.2,1.5-2.8,0.8c-0.6-0.6-1-1.8-1.2-3.5
			c-0.2-1.7-0.2-3.6,0.1-5.9c0.2-2.3,0.5-4.5,0.8-6.6c0.3-2.1,0.6-4,0.9-5.6c0.3-1.6,0.4-2.6,0.5-2.9l-5.7-1.3
			c-0.8,1.5-1.7,3.1-2.7,5c-1,1.8-2.1,3.6-3.3,5.4c-1.2,1.8-2.4,3.4-3.7,5c-1.3,1.5-2.6,2.8-4,3.7c-1.3,0.9-2.2,0.9-2.6,0
			c-0.5-0.9-0.6-2.4-0.5-4.4c0.1-2,0.5-4.2,1.2-6.8c0.6-2.5,1.4-4.9,2.4-7.2c0.9-2.3,2-4.2,3.2-5.7c1.2-1.5,2.3-2.3,3.5-2.3
			c0.9,0.2,1.7,0.6,2.2,1.2c0.7,0.7,1,1.7,1,3.1v1.5l2.4,0.3c0.1-0.4,0.1-1.1,0.1-1.9c-0.2-2.1-0.7-3.7-1.7-4.6
			c-1-1.1-2.3-1.8-3.9-1.9c-0.3-0.1-0.6-0.1-1-0.1c-2.5,0.1-4.8,1-6.8,2.8c-2.1,1.8-3.8,3.9-5.2,6.4c-1.4,2.5-2.5,5.2-3.2,8.1
			c-0.4,1.8-0.7,3.5-0.8,5.1c-1.2,2.7-2.4,5.3-3.7,8c-1.5,2.9-2.9,5.6-4.4,7.9c-1.5,2.4-3,4.2-4.4,5.6c-1.4,1.4-2.7,1.9-3.8,1.7
			c-1.5-0.3-2.5-1.1-3.1-2.5c-0.6-1.4-0.9-3.2-1-5.4c-0.1-2.2,0-4.7,0.3-7.5c0.3-2.8,0.7-5.7,1.1-8.8l0.1-0.8
			c0.7-5.4,1.2-9.6,1.4-12.7c0.3-3.1,0.1-5.6-0.5-7.6c-0.6-2-1.7-3.7-3.2-5.2c-1.5-1.5-3.7-3.4-6.6-5.7c1.2-3.6,2.2-6.9,3-10
			c0.9-3.9,1.3-7.4,1-10.2c-0.3-2.9-1.5-4.6-3.7-5.1c-2-0.5-3.7-0.2-5.1,1c-0.8,0.5-1.4,1.2-2,2.1c-0.6,0.9-1.1,1.9-1.5,2.9
			c-0.8,2.1-1.2,4.4-1.2,6.9c0,2.2,0.3,4.4,1,6.5c0.7,2.1,1.8,3.8,3.2,5l2.2,1.7c-0.9,2.7-1.9,5.4-2.9,7.8c-1,2.5-1.9,4.7-2.6,6.6
			c-0.8,2.1-1.4,3.6-1.8,4.6c-0.1,0.1-0.1,0.3-0.2,0.4c-0.4,0.9-0.8,2.1-1.2,3.3c-0.9,2.6-2.1,5.6-3.5,9.2c-1.4,3.6-2.9,7-4.6,10.4
			c-1.7,3.3-3.4,6.3-5.3,8.9c-1.8,2.6-3.7,4.3-5.6,5.1c-1.2,0.5-2.2,0-2.9-1.5c-0.7-1.5-1.3-3.7-1.6-6.6c-0.3-2.9-0.6-6.3-0.6-10.2
			c-0.1-3.9,0-8,0.1-12.4c0.2-4.3,0.4-8.7,0.6-13.2c0.3-4.5,0.6-8.8,0.9-12.8c2.7,0.3,5.3,0.4,7.8,0.2c2.4-0.2,4.6-1,6.5-2.3
			l-1.5-2.1c-1.5,1-3.4,1.6-5.5,1.8c-2.1,0.2-4.5,0.1-6.9-0.1c0.4-4.9,0.8-9,1.2-12.4c0.3-3.4,0.6-5.5,0.8-6.2l-9.4-1.3
			c0.2,0.9,0.1,3.1-0.3,6.4c-0.3,3.3-0.7,7.4-1.2,12.3c-3.5-0.5-6.6-0.6-9.2-0.4c-2.6,0.3-4.4,1.6-5.2,4l2.4,0.9
			c0.5-1.6,1.9-2.5,4.1-2.6c2.2-0.1,4.7,0.1,7.7,0.5c-0.3,4-0.6,8.3-0.9,12.9c-0.3,4.5-0.4,9-0.4,13.5c0,4.5,0.1,8.7,0.4,12.9
			c0.3,4.1,1,7.8,1.9,10.9c0.9,3.2,2.1,5.7,3.5,7.7c1.5,1.9,3.3,2.9,5.7,3c2.6,0.2,5-1.1,7.4-3.7c2.4-2.6,4.5-5.8,6.6-9.5
			c2-3.7,3.8-7.7,5.5-11.8c1.6-4.1,3-7.7,4.1-10.7l1.4-3.9c1.1-2.7,2.1-5.5,3.3-8.2c1.2-3.1,2.5-6.4,3.8-9.9
			c2.3,1.4,3.7,3.7,4.1,6.9c0.4,3.2,0.5,6.9,0.1,10.9c-0.4,4.1-0.9,8.3-1.5,12.7c-0.6,4.4-0.9,8.5-0.8,12.3c0.1,3.8,0.8,7,2.3,9.7
			c1.4,2.7,4,4.3,7.7,4.8c1.9,0.3,3.8-0.6,5.8-2.4c2-1.9,3.9-4.4,5.9-7.4c1.9-3,3.8-6.4,5.5-10c0.2-0.3,0.3-0.6,0.5-1
			c0.3,1,0.8,1.9,1.3,2.7c1.1,1.5,2.8,2,5.1,1.7c1.3-0.2,2.5-0.7,3.7-1.5c1.2-0.8,2.4-1.8,3.5-3c1.2-1.2,2.3-2.5,3.3-4
			c1.1-1.5,2.1-2.9,3-4.4c0,0.5-0.1,1.8-0.2,3.9c-0.1,2.1,0,4.2,0.3,6.5c0.3,2.3,1,4.3,2.1,6c1.1,1.8,2.8,2.6,5.2,2.5
			c1.6-0.1,3.3-0.8,4.9-2.1c1.6-1.3,3.2-3,4.8-5c1.5-2,3-4.2,4.3-6.7c1.3-2.4,2.5-4.8,3.5-7.1c0.1-0.3,0.2-0.5,0.3-0.8
			c0,0.1,0,0.2,0,0.3c0.6,3.5,1.4,7.2,2.3,10.9c0.9,3.8,2,7.2,3.2,10.4c1.2,3.2,2.7,5.9,4.4,8c1.7,2.2,3.5,3.5,5.6,3.8
			c1.9,0.3,3.8-0.9,5.8-3.5c2-2.6,3.9-5.9,5.9-9.9c0.8-1.5,1.5-3.2,2.3-4.8c0.7-1.7,1.4-3.4,2.1-5.1l1.4,0.3c4,0.3,7.9-0.4,11.6-2.1
			c3.1-1.4,6-3.5,8.5-6.2c0,0.3,0,0.5,0.1,0.8c0.3,2.3,1.1,4.3,2.3,6.2c1.2,1.8,2.8,3.3,4.9,4.4c2.1,1.1,4.6,1.7,7.7,1.7
			c1.5,0,3.4-0.5,5.7-1.5c2.2-1,4.6-2.8,7.1-5.5c1.7-1.8,3.3-4.1,5-6.8c0.6,4,1.6,7.4,2.9,10.2c1.8,3.8,4.2,5.7,7.3,5.9
			c2.4,0.1,4.6-0.5,6.7-1.8c2.1-1.3,3.9-3,5.7-5c1.3-1.5,2.5-3.2,3.6-5c1.1-1.8,2.1-3.5,3-5.3c0.9-1.8,1.7-3.5,2.4-5.1
			c0.7-1.6,1.3-3.1,1.7-4.4L356.9,213.6z M335,182.2c1.1-5.7,2.5-10.8,4.1-15.2c1.6-4.5,3.3-8,5.3-10.5c1.9-2.5,4-3.5,6.1-3
			c0.3,0,0.5,0,0.7,0.1c0.2,0.1,0.5,0.2,0.7,0.3c1.4,0.8,2.4,2.1,3.2,4c0.4,1,0.7,2.1,0.8,3.3c0.1,1.2,0.1,2.5-0.1,4
			c-0.4,2.2-1.2,4.5-2.4,6.8c-1.2,2.2-2.6,4.5-4.2,6.9c-1.6,2.4-3.4,4.8-5.3,7.2c-1.9,2.3-3.8,4.6-5.7,6.9c-1.9,2.3-3.8,4.4-5.7,6.5
			C333,193.7,333.9,187.9,335,182.2z M302.5,213.4c0.8-1.8,1.9-3.2,3.4-4.4c1.3-1.2,2.5-1.9,3.7-2.2c1-0.3,1.8-0.3,2.4,0.1
			c0.5,0.3,0.9,0.9,1.2,1.8c0.3,1.1,0.2,2.3-0.1,3.5c-0.4,1.4-1.3,2.6-2.6,3.6c-0.9,0.9-2.2,1.6-3.9,2.1c-1.6,0.6-3.6,0.9-6,1.1
			C301.1,217.1,301.7,215.2,302.5,213.4z M164.3,194c-1.3-0.9-2.1-2.6-2.3-5c-0.3-2.4-0.2-4.8,0.2-7.3s1-4.6,1.7-6.4
			c0.8-1.8,1.5-2.6,2.2-2.4c1.4,0.3,2.1,1.7,2.1,3.9c0,2.3-0.4,5-1.3,8.3C166.2,187.9,165.3,190.9,164.3,194z M270.2,230.7
			c-2.2-0.6-4.3-1.6-6.2-3.1c-2.1-1.7-3.8-3.9-5.1-6.6c-1.4-2.7-2.2-5.9-2.6-9.8c-0.3-2.9-0.2-5.7,0.2-8.4c0.4-2.7,1-5.1,1.9-7.3
			c0.9-2.2,1.9-4.1,3.1-5.9c1.2-1.7,2.5-3.1,3.9-4.2c2.1-1.7,4.2-2.7,6.3-2.8c2.1,0,3.7,0.8,4.9,2.3c1.4,1.8,2.2,4.6,2.6,8.4
			c0.3,3.8-0.2,8.7-1.5,14.9c-0.2,0.9-0.5,2.1-0.9,3.6c-0.4,1.5-1,3.3-1.6,5.3c-0.6,2-1.4,4.2-2.2,6.4
			C272,226,271.1,228.3,270.2,230.7z"/>
		<g>
			<path d="M201.9,250.6l-3.5,0c-0.5,0-0.9,0-1.4,0c-0.6,0.1-6.1,0.1-6.8,0.2l-0.2,0.1c-0.2,0-0.4,0.2-0.4,0.4s0.1,0.3,0.3,0.4
				c0.1,0,0.2,0,0.2,0h4.2c0,0,0,0.1,0,0.1c0,0.9-0.1,5.1-0.2,6c0,0.3,0,4.1-0.1,5.1c0,1-0.1,1.9-0.1,2.9l-0.1,7.1
				c0,0.3,0.2,1.1,0.7,1c1.1-0.1,2.2,0.1,3.5,0c0.4,0,0-1.3,0-1.4l0-1.4c0-0.3,0-0.4,0.2-3.8c0-0.4,0-0.7,0-1.1
				c0-0.6,0.3-8.3,0.3-9.2c0-0.6,0.1-1.1,0.1-1.7c0-0.3,0-0.6,0.1-0.9c0-0.8,0.1-1.5,0.2-2.3c0-0.1,0-0.1,0.1-0.2
				c0.1,0,0.2-0.1,0.2-0.1h3.7c0.3,0,0.4-0.2,0.5-0.6C203.6,250.5,202.7,250.7,201.9,250.6z"/>
			<path d="M223.1,250.9c-0.1,0-0.2,0-0.4,0c-3,0.2,0.3,0-4,0.1l-1.4,0.1c-0.3,0-0.4,0.2-0.3,0.6c0.1,0.2,0.2,0.3,0.4,0.2
				c0.3,0,0.6-0.1,0.8-0.1c0.2,0,0.1,0,0.1,0.1l0,1.7c-0.1,0.8-0.1,1.7-0.2,2.6c0,0.4-0.2,6.4-0.2,6.6l-0.1,2c0,0.2,0,0.4-0.3,0.4
				c-2.7,0-5.1,0-6.2,0H211c0-0.1,0-0.3,0-0.4c0-0.5,0-1,0-1.6c0.1-2.7,0.1-3,0.1-3.4l-0.1-4v-0.4l0-2.8c0-0.2,0-1.1,0-1.3
				c0.1,0,0.9-0.2,1.1-0.2c0.2,0,0.4-0.1,0.5-0.2c0.1-0.1,0-0.3-0.1-0.3c0,0-0.2-0.1-0.2-0.1c-0.3,0-3.8,0.2-4.6,0.3
				c-0.6,0.1-0.9-0.2-1.4,0.2c-0.2,0-0.3,0.2-0.2,0.5c0,0.2,0.1,0.3,0.4,0.3h0.8c0.2-0.1,0.3,0,0.2,0.2c0,0.7,0,1.3-0.1,2
				c-0.2,1.5-0.3,3-0.4,4.5l-0.1,4.5c0,0.5,0,1.1,0,1.7c0,0.8,0,1.4,0.1,2.2c0,0.7,0,1.4,0,2.1c0,1,0,2.1,0,3.1c0,0.3,0,0.6-0.1,0.8
				c-0.8,0.1-1,0.1-1.1,0.2c-0.2,0-0.3,0.2-0.3,0.3c0,0.2,0.1,0.3,0.3,0.4c0.2,0.2,1.7,0,2.7-0.2c1.1-0.2,2.7-0.1,2.9-0.7
				c0.1-0.2,0-0.4-0.2-0.5l-0.3-0.1c0-1.9,0.1-3.9,0-5.8l0-0.2c0.2,0,0.3-0.1,0.5,0c0.9-0.1,1.7-0.1,2.5-0.1l2.7,0
				c0.3,0,0.6,0,0.8,0.1c0.2,0,0.2,0.1,0.2,0.2v0.2c0,0.6,0,1,0,1.6c0,0.5,0,1,0,2.9c0,0.4,0,0.8,0.1,1.3c0,0.1,0,0.2,0,0.2
				c-0.2,0.1-0.3,0.1-0.4,0.2c-0.2,0.1-0.2,0.4-0.2,0.5c0,0.2,0.1,0.2,0.3,0.3c0.2,0,0.3,0,0.4,0.1c0.7,0,1.4-0.1,2.1-0.1
				c0.5,0,0.9,0,1.3,0c0.2,0,0.4,0,0.5-0.2c0.2-0.3,0.1-0.6-0.2-0.7c-0.1,0-0.2,0-0.2-0.1l0.2-3.1c0.2-1.5,0.5-6.4,0.6-7.2
				c0-0.6,0-3.3,0.1-7c0-0.5,0-1,0-1.4c0-0.9,0-1.4,0.1-1.8c0-0.2,0.1-0.3,0.3-0.3c0.2-0.1,0.4-0.2,0.6-0.3c0.3-0.2,0.3-0.4,0.1-0.6
				C223.3,250.9,223.2,250.9,223.1,250.9z"/>
			<path d="M241.7,271.1c-0.2,0-0.3,0-0.4,0.2c-0.2,0.1-0.4,0.4-0.4,0.6c-0.2,0.5-0.6,0.7-1.1,0.9c-0.2,0.1-0.4,0.2-0.7,0.2
				c-0.7,0.2-1.7,0.2-2.4,0.1c-1.3,0-2.5-0.1-3.9-0.2c-0.5,0-0.6-0.2-0.6-0.7c-0.1-0.4,0-0.6,0-0.9c0-1,0-2.1,0.1-3.1
				c0-1,0.1-1.8,0.1-2.8c0-0.5,0-1,0-1.6c0-0.2,0-0.5,0-0.5c0.4-0.1,1.1,0,1.4-0.1l3.5,0.1h0.1c0.2,0,0.3-0.2,0.4-0.3
				c0.1-0.2,0-0.3-0.1-0.5c-0.2-0.2-0.4-0.1-0.7-0.1c-1.3,0.2-2.7,0-4,0c-0.3,0-0.4-0.2-0.4-0.4c0-0.3,0-0.5,0-0.7
				c0-1,0.1-2.1,0.2-3.2l0.3-4.2c0-0.6,0-1.2,0.1-1.8c0-0.3,0-0.4,0.1-0.4h1.9c1.8-0.1,3.4-0.2,5.2,0c0.4,0,0.6-0.1,0.7-0.4
				c0.1-0.1,0.1-0.2,0-0.4c-0.1-0.1-0.3-0.2-0.6-0.2c-1.7,0.2-3.2,0-4.3,0.2c-1,0-2.2,0-3.2,0c-0.3,0-3.5,0.2-4.9,0.2
				c-0.5,0-1,0-1.5,0.1c-0.2,0-0.2,0-0.3,0c-0.1,0.1-0.1,0.2-0.2,0.4c0,0.1,0.1,0.2,0.2,0.2c0.2,0,0.3,0,0.6,0c0.4,0,0.7,0,1.1,0
				c0,0.8-0.4,12.6-0.4,13.4c-0.1,1.7-0.1,3.5-0.2,5.3c0,0.8,0,1.7,0.1,2.5v0.4c0.1,0.3,0.3,0.5,0.6,0.5l2.2-0.1c0.8,0,1.8,0,2.5,0
				c0.8,0,1.4,0,2.1,0.1c1.2,0.1,2.5,0.1,3.7,0c1.1,0,2.1-0.5,2.9-1.2c0.3-0.4,0.4-0.8,0.5-1.1C242,271.3,241.8,271.2,241.7,271.1z"
				/>
		</g>
		<path d="M365.8,312.6c-0.7,1.6-1.6,3.3-2.6,5.1c-1,1.8-2.1,3.7-3.2,5.7c-1.2,1.9-2.3,3.8-3.5,5.6c-1.6,2.4-3.2,4.3-4.6,5.7
			c-1.5,1.4-2.7,2.2-3.6,2.4c-1.3,0.3-2.4-0.5-3.4-2.4c-1-1.8-1.8-4.1-2.5-6.8c-0.7-2.7-1.2-5.5-1.6-8.4c-0.4-2.9-0.6-5.3-0.7-7.1
			c2.7-3.9,5.3-7.8,8-12c2.7-4.1,5.1-8,7.3-11.6c2.2-3.6,4.1-6.8,5.6-9.5c1.5-2.7,2.6-4.7,3.1-5.9c2.6-5.7,4-10.5,4.4-14.5
			c0.3-4-0.1-7.2-1.3-9.6c-1.3-2.2-2.9-3.6-4.8-4.2c-1.9-0.8-4-0.8-6.4-0.1c-2.8,0.9-5.7,2.9-8.7,5.9c-3,3-5.4,7.2-7.4,12.6
			c-1.5,3.8-2.7,7.9-3.7,12.3c-1,4.5-1.8,9.1-2.3,13.8c-0.6,4.8-0.9,9.5-0.9,14.2c0,4.7,0.1,9.1,0.6,13.2c-1.7,2.2-3.4,4.2-5,6
			c-1.6,1.8-3,3.4-4.2,4.8c-1.7,1.9-3.1,2.6-4.2,2.2c-1.1-0.4-1.8-1.5-2.2-3.3c-0.4-1.8-0.5-3.9-0.3-6.5c0.2-2.6,0.6-5,1.4-7.4
			c0.8-2.4,1.8-4.4,3-6.1c1.2-1.7,2.7-2.6,4.4-2.7c0.9,0,1.7,0.3,2.2,1c0.7,0.7,1,1.7,1,3.1v1.5l2.6,0.3v-1.9
			c-0.2-2.1-0.7-3.7-1.7-4.6c-1-1.1-2.3-1.8-3.9-1.9c-0.3-0.1-0.7-0.1-1,0c-2.6,0.1-4.9,0.9-6.9,2.6c-2,1.6-3.7,3.7-5,6.1
			c-1.3,2.4-2.2,5.1-2.8,7.8c-0.1,0.6-0.2,1.2-0.3,1.7c-1.6,2.9-3.4,5.6-5.4,8c-1.2,1.4-2.4,2.5-3.7,3.5c-1.3,0.9-2.5,1.5-3.6,1.7
			c-1.7,0.3-3.1-0.5-4.1-2.3c-1-1.8-1.8-4.2-2.4-7.4c-0.6-3.2-0.9-6.9-0.9-11.1c0-4.2,0.1-8.7,0.4-13.4c2.2-2.3,4.5-4.8,6.9-7.5
			c2.4-2.7,4.7-5.5,6.9-8.3c2-2.5,3.8-5,5.5-7.5c1.7-2.5,3.2-4.9,4.4-7.2c0.7-1.4,1.2-2.7,1.7-3.9c0.4-1.2,0.7-2.5,0.9-3.7
			c0.3-1.7,0.3-3.3,0.1-4.7c-0.2-1.4-0.5-2.7-0.9-3.9c-1.1-2.7-2.6-4.4-4.5-5.3c-0.6-0.3-1.3-0.6-2.2-0.8c-2.2-0.3-4.4,0-6.4,1
			c-2,1-3.9,2.6-5.5,4.6c-1.7,2.1-3.2,4.5-4.6,7.5c-1.4,2.9-2.7,6.1-3.8,9.6c-1.1,3.6-2.1,7.4-2.8,11.5c-0.8,4.1-1.4,8.2-1.8,12.3
			c-0.4,4.1-0.7,8.1-0.8,12.1c-0.1,3.9,0,7.7,0.4,11.2c0,0.2,0,0.3,0.1,0.5c-0.9,2.1-1.8,4.4-2.9,6.8c-1.3,3-2.7,5.9-4.1,8.8
			c-1.5,2.9-2.9,5.6-4.4,7.9c-1.5,2.4-3,4.2-4.4,5.6c-1.4,1.4-2.7,1.9-3.8,1.7c-1.5-0.3-2.5-1.1-3.1-2.5c-0.6-1.4-0.9-3.2-1-5.4
			c-0.1-2.2,0-4.7,0.3-7.5c0.3-2.8,0.7-5.7,1.1-8.8l0.1-0.8c0.7-5.4,1.2-9.6,1.4-12.7c0.3-3.1,0.1-5.6-0.5-7.6
			c-0.6-2-1.7-3.7-3.2-5.2c-1.5-1.5-3.7-3.4-6.6-5.7c1.2-3.6,2.2-6.9,3-10c0.9-3.9,1.3-7.4,1-10.2c-0.3-2.9-1.5-4.6-3.7-5.1
			c-2-0.5-3.7-0.2-5.1,1c-0.8,0.5-1.4,1.2-2,2.1c-0.6,0.9-1.1,1.9-1.5,2.9c-0.8,2.1-1.2,4.4-1.2,6.9c0,2.2,0.3,4.4,1,6.5
			c0.7,2.1,1.8,3.8,3.2,5l2.2,1.7c-0.9,2.7-1.9,5.4-2.9,7.8c-1,2.5-1.9,4.7-2.6,6.6c-1,2.5-1.7,4.2-2,5.2c-0.6,1.2-1.2,2.3-2,3.3
			c-1.3,1.6-2.7,3-4.2,4c-0.6,0.4-1.2,0.8-1.8,1c-0.6,0.3-1.2,0.5-1.9,0.8c0.5-2.1,0.9-4.2,1-6.6c0.2-2.3,0.1-4.6-0.1-6.8
			c-0.3-3.3-1-6.3-2.2-8.7c-0.7-1.3-1.5-2.4-2.3-3.5c-0.9-1-1.9-1.8-3.1-2.4c-1.5-0.8-3.4-1.1-5.7-0.9c-0.9,0.2-1.5,0.3-2.1,0.5
			c-1.5,0.5-2.9,1.4-3.9,2.6c-1.1,1.2-1.9,2.7-2.6,4.4c-0.7,1.5-1.1,3.2-1.3,5c-0.2,1.8-0.2,3.6,0,5.3c0.2,1.6,0.5,3.1,0.9,4.4
			l0.2,0.6c-0.9,1.4-1.8,2.7-2.8,3.7c-2.2,2.2-4.5,3.8-6.9,4.8c-2.3,0.9-4.7,1.5-7.1,1.7c1-2.6,1.9-5.3,2.7-8.1
			c1.5-5.4,2.3-10.6,2.6-15.7c0.3-5.3-0.1-9.9-1.2-13.8c-0.9-3.1-2.3-5.6-4.1-7.4c-1.8-1.8-4.1-2.8-7-2.9c-4.2-0.2-7.7,0.8-10.4,3
			c-2.7,2.2-4.8,5-6.2,8.6c-1.2,3-1.9,6.5-2.1,10.4c-0.1,3.6,0.4,7.2,1.4,10.8c1.2,4.6,3.3,8.6,6.4,12c3.1,3.3,7,5.2,11.8,5.7
			c0.4,0.1,1.1,0.1,2.1,0.1c-2.1,4.7-4.5,8.6-7.3,11.8c-2.8,3.1-5.8,4.8-9.1,5c-2.4,0.1-4.3-0.5-5.8-1.7c-1.5-1.2-2.6-2.8-3.3-4.8
			c-0.8-2-1.2-4.2-1.4-6.7c-0.2-2.5-0.2-5-0.1-7.6s0.4-5.1,0.7-7.5c0.3-2.4,0.7-4.5,1-6.2l-7.2-0.8c-1,4.2-2.2,7.5-3.6,10
			c-1.4,2.4-2.7,4.1-4.1,5.1c-0.8,0.5-1.3,0.4-1.7-0.4c-0.3-0.8-0.5-1.9-0.5-3.3c0-1.5,0.2-3.1,0.5-5c0.3-1.9,0.5-3.7,0.8-5.4
			c0.3-1.7,0.6-3.2,0.9-4.4c0.3-1.2,0.5-2,0.6-2.4l-7.5-0.6c-0.3,1.5-0.6,3.6-1.1,6.3c-0.5,2.7-0.7,5.5-0.6,8.2
			c0.1,2.7,0.6,5.1,1.5,7.2c0.9,2.1,2.7,3.1,5.3,3.1c1.1,0,2.2-0.3,3.2-1c0.8-0.6,1.6-1.4,2.4-2.4c0.9-1,1.7-2.3,2.4-3.9
			c-0.2,2.2-0.2,4.5-0.1,6.7c0.1,2.2,0.4,4.3,0.8,6.3c0.4,2.1,1.1,3.9,1.9,5.7c0.9,1.7,1.9,3.2,3.3,4.5c1.3,1.3,2.9,2.3,4.8,2.9
			c1.9,0.6,4.1,0.9,6.7,0.7c1.9-0.1,3.7-0.6,5.5-1.7c1.8-1,3.5-2.4,5.1-4.1c1.6-1.7,3.1-3.7,4.5-6c1.4-2.3,2.7-4.8,3.9-7.5
			c1.4-0.1,2.8-0.3,4.4-0.6c1.5-0.3,3.1-0.8,4.6-1.5c2.7-1.1,5.4-2.9,7.8-5.3c0.1-0.1,0.2-0.2,0.3-0.3c0,0.8,0,1.6,0,2.4
			c0.2,2.3,0.8,4.4,1.6,6.2c0.9,2.1,2.2,3.6,3.7,4.6c1.5,1.2,3.3,1.7,5.1,1.5c1.6-0.2,3.3-0.9,4.9-2.2c1.6-1.3,3.1-3.3,4.5-6
			l1.2-2.8c1-0.3,2-0.6,3-1c1-0.4,1.9-0.9,2.9-1.6c1.8-1.2,3.4-2.7,4.8-4.5c0.8-1.1,1.6-2.3,2.2-3.6l0,0c0.1-0.2,0.2-0.5,0.3-0.7
			c0.2-0.5,0.5-1.1,0.7-1.7c0.9-2.3,1.8-4.6,2.7-6.9c1.2-3.1,2.5-6.4,3.8-9.9c2.3,1.4,3.7,3.7,4.1,6.9c0.4,3.2,0.5,6.9,0.1,10.9
			c-0.4,4.1-0.9,8.3-1.5,12.7c-0.6,4.4-0.9,8.5-0.8,12.3c0.1,3.8,0.8,7,2.3,9.7c1.4,2.7,4,4.3,7.7,4.8c1.9,0.3,3.8-0.6,5.8-2.4
			c2-1.9,3.9-4.4,5.9-7.4c1.9-3,3.8-6.4,5.5-10c1.5-3.1,2.8-6.1,4-8.8c0.6,3.2,1.4,6,2.5,8.3c1.8,3.8,4.2,5.7,7.3,5.9
			c2.4,0.1,4.6-0.5,6.7-1.8c2.1-1.3,3.9-3,5.7-5c1.1-1.3,2.1-2.7,3.1-4.2c0,0.2,0,0.4,0,0.6c0.3,2.4,1.1,4.4,2.3,6
			c1.2,1.6,3,2.4,5.2,2.4c2.1,0,4.5-1.2,7.1-3.7c2.6-2.5,5.5-5.8,8.7-9.9c0.3,2.3,0.8,4.4,1.4,6.4c0.6,1.9,1.2,3.7,1.9,5.3
			c1,2.2,2.6,4.2,4.6,6c2.1,1.8,4.5,2.4,7.3,2c1.3-0.2,2.7-0.9,4.1-2.3c1.5-1.4,2.9-3.1,4.4-5.1c1.5-2,2.8-4.2,4.2-6.6
			c1.3-2.4,2.6-4.7,3.7-6.9c1.1-2.2,2.1-4.2,2.8-5.9c0.8-1.8,1.3-3,1.5-3.8l-2.4-0.9C367.1,309.7,366.5,311,365.8,312.6z
			 M293.9,277.3c1.1-5.7,2.5-10.8,4.1-15.2c1.6-4.5,3.3-8,5.3-10.5c1.9-2.5,4-3.5,6.1-3c0.3,0,0.5,0,0.7,0.1
			c0.2,0.1,0.5,0.2,0.7,0.3c1.4,0.8,2.4,2.1,3.2,4c0.4,1,0.7,2.1,0.8,3.3c0.1,1.2,0.1,2.5-0.1,4c-0.4,2.2-1.2,4.5-2.4,6.8
			c-1.2,2.2-2.6,4.5-4.2,6.9c-1.6,2.4-3.4,4.8-5.3,7.2c-1.9,2.3-3.8,4.6-5.7,6.9c-1.9,2.3-3.8,4.4-5.7,6.5
			C292,288.8,292.8,283,293.9,277.3z M193.7,320.2c-0.5,1.5-1,2.9-1.5,4.4c-0.6,0-1.2,0-1.7,0c-0.5,0-1,0-1.4-0.1
			c-4.1-0.3-7.5-2-10.2-5c-2.7-3-4.6-6.6-5.8-10.7c-0.4-1.6-0.8-3.3-1-5c-0.3-1.7-0.3-3.4-0.3-5.1c0.2-3.4,0.8-6.6,1.9-9.5
			c1.2-3,3-5.4,5.3-7.3c2.3-1.9,5.3-2.7,8.9-2.6c2.2,0,4.1,0.8,5.5,2.3c1.4,1.5,2.5,3.6,3.2,6c0.5,1.8,0.9,3.8,1,6
			c0.2,2.2,0.2,4.5,0,6.9c-0.3,4.9-1.1,10-2.6,15.3C194.6,317.2,194.1,318.8,193.7,320.2z M228.6,324.8c-1.2,2.3-2.5,4.1-3.8,5.3
			c-1.3,1.2-2.5,1.7-3.5,1.5c-0.9-0.1-1.5-0.6-2.1-1.5c-0.5-0.9-0.9-2-1.2-3.2c-0.3-1.2-0.4-2.3-0.5-3.4c0-1.1,0-1.9,0.2-2.3
			c3,1.8,6.3,2.6,9.9,2.4h1.4L228.6,324.8z M231.2,314.3c-0.2,2.4-0.6,4.6-1.2,6.7c-0.4,0.1-0.8,0.2-1.2,0.2c-0.3,0-0.7,0.1-1.2,0.1
			c-3.3,0-6.1-0.7-8.6-2.2l-1-0.8c0.2-1.2,0.3-2.5,0.3-3.9c0-1.4,0.5-3.1,1.4-5.3l-4.4-2.6c-0.4,0.7-0.8,1.3-1.2,1.9
			c-0.3,0.6-0.6,1.2-0.9,1.8c-0.1-0.3-0.1-0.7-0.1-1.3c-0.4-3.3-0.1-6.3,1-9.1c1.1-2.9,2.8-4.8,5.1-5.7c0.5-0.2,1-0.3,1.4-0.3
			c1.6-0.1,3,0.1,4.2,0.6c1.7,0.9,3.1,2.4,4.2,4.8c1,2.1,1.7,4.8,1.9,7.8C231.4,309.5,231.5,311.9,231.2,314.3z M251.2,289.1
			c-1.3-0.9-2.1-2.6-2.3-5c-0.3-2.4-0.2-4.8,0.2-7.3c0.4-2.4,1-4.6,1.7-6.4c0.8-1.8,1.5-2.6,2.2-2.4c1.4,0.3,2.1,1.7,2.1,3.9
			c0,2.3-0.4,5-1.3,8.3C253.1,283,252.3,286,251.2,289.1z M339.6,296.7c0.3-4.3,0.9-8.7,1.7-13.3c0.8-4.5,1.8-9,3.1-13.4
			c1.2-4.4,2.7-8.3,4.2-11.7c1.6-3.4,3.3-6.1,5.1-8.2c1.8-2.1,3.6-3.2,5.5-3.2c0.8,0,1.5,0.1,2.2,0.4c1.5,0.5,2.6,1.5,3.3,3.1
			c1,2.1,1.4,4.9,1,8.5c-0.3,3.6-1.7,8.1-4.1,13.4c-0.5,1.1-1.5,2.9-2.8,5.4c-1.4,2.5-3,5.4-5,8.7c-2,3.3-4.2,6.8-6.6,10.6
			c-2.4,3.8-4.9,7.5-7.5,11.2C339.3,304.9,339.2,301.1,339.6,296.7z"/>
	</g>
	<g>
		<path class="st3" d="M244.3,110.2c-4,0-9.4-3-12.2,1c-2.2,3.1-1.2,6.6-3.5,9.8c-1.8,2.5-4.5,2.8-3.6-1.1c0.4-1.6,1.4-3.1,2.2-4.5
			c1.1-2.2,1-3.7,1-6.1c0.1-3.3-1-6.5-2.4-9.5c-1.5-3.4-2.3-6-6.3-5c-5.1,1.2-1.7-1.4-0.1-3.3c1-1.2,2.8-7.8-0.3-7.8
			c-1,0-5,5.6-5.9,6.5c-1.7,1.7-3.6,3.6-5,5.5c-1.2,1.5-1.8,3.3-2.9,4.8c-1.9,2.5-5.1,4.6-3.2,8c1.3,2.3,4.2,4.1,6.7,5
			c1.6,0.6,4.4,1,5.5,2.5c1.2,1.6,0.2,1-0.1,2.6c-0.6,3.7,2.6,6.4,6,7.9c0.9,0.4,4.3,1.3,2.8,3c-1,1.1-4.2-0.5-5.2-0.9
			c-3.9-1.6-6.1-3.2-8.3-6.7c-0.7-1.1-0.8-2-2.2-1.8c-1.6,0.3-1.7,3-3,3.4c-2.1,0.6-3.6-4.4-4.4-5.8c-0.5-1-1-2.5-1.8-3.3
			c-1.3-1.2-1.1-0.4-2.6-1c-1.9-0.7-1.5-1.4-2.2-3c-0.9-2-2.3-3.8-3.3-5.7c-0.6-1-2.7-6.3-4.1-6.3c-1,0-3.6,5.2-4.1,5.9
			c-1.5,2.4-3,4.9-4.6,7.3c-1.2,1.9-1.4,3.4-0.1,5.5c2,3.1,4.7,2.6,7.6,3.7c2.4,0.9,6,2.9,4.6,5.6c-1,2.1-2.3,4.3-3.4,6.4
			c-0.3,0.5-1.4,2.7-2.1,2.7c-1.8,0.1-0.7-8.8-4.7-3.4c-0.8,1-1.6,3.5-3.2,3.7c-2.8,0.3-1.3-2-0.5-3.4c1.5-2.6,3.7-5.4,1.8-8.3
			c-2.1-3.3-3.9-1.1-5.9,1.1c-0.3,0.3-1.6,2.3-2.2,2.4c-3,0.3-0.7-4-0.4-5.1c0.4-1.6,0.5-2.9-0.5-4.4c-1.5-2.1-2.4-1.5-4.2-0.3
			c-2.1,1.4-3.8,3.8-5.8,5.5c-3,2.7-7.2,2.6-10.1,5.6c-3,3-6.1,6-9.2,9c-5.1,4.9-9.2,11.9-16.4,14.2c-0.6,0.2-8.6,3.8-8.3,1.5
			c0.2-1.4,6.3-3.1,7.6-3.8c2.3-1.4,4.4-3,6.7-4.4c2.5-1.5,4.1-3.7,6.2-5.9c2.1-2.3,4.5-4.1,6.7-6.1c2.4-2.2,4.2-5.5,7.2-7.2
			c3.7-2.3,7.7-3.5,10.5-6.9c1.8-2.3,3.3-7,6-8.3c3-1.4,4.7,3.4,8,2c3.5-1.5,6.1-8,8.1-11c1.1-1.7,2.4-4.9,4.1-6.2
			c2.8-2.1,7.8,2.5,10.4,3.5c3.9,1.4,6.9-0.4,9.5-3.3c2.7-2.9,5.5-5.5,8.1-8.5c2-2.3,4.6-8,8.1-5.2c2.2,1.8,3.6,5,5,7.4
			c2.2,3.5,5.2,6.9,8.1,9.9c3,3.1,6,4.5,10.3,5.5c2,0.4,4.1,0,5.8,0.9c1.2,0.6,2.9,2,3.8,3c2.5,2.7,3.1,6.3,6.4,8.4
			c2.7,1.8,5.7,1.1,8.6,1.9c3.4,0.9,6.3,3.8,8.7,6.2c10.3,9.7,22.7,17.5,32,28.2c1.9,2.2,1.8,5.5-1.7,4.8c-3-0.6-6.9-4.7-9.4-6.6
			c-3.8-2.7-7.9-5.6-12.5-6.7c-5-1.2-7,0.7-10.4,3.8c-2.4,2.2-4.6,3.2-7.4,1.1c-2.8-2.1-5-5.2-8.4-6.5c-2-0.8-3.6-0.3-5.7-0.3
			c-1.3,0-2.4-0.1-3.7-0.1c-0.8,0-1,0.6-1.7,0.5c-0.6-0.1-3.3-1.5-3.4-1.9c-0.3-1.8,4.7-1.7,5.6-1.9c5.9-1.6,11.5-2.9,16.4-6.7
			c2.3-1.8,4.5-4.4,2.7-7.2c-2.3-3.4-7.5-2.7-11-2.6c-2.2,0-3.8,1-6,1.7c-1.1,0.4-1.7,0.4-2.8,1.4c-2.3,2-4.6,3.2-6.9,5.2
			c-2.1,1.9-6.1,2.8-3.8-0.7c1.9-2.8,5.8-4.5,8.3-6.9c2-1.9,4.1-5.4,3.6-8.3C251.3,112.2,247.5,109.8,244.3,110.2z M162.4,150.8
			c-1.2,0.9-5.8,4.7-7.6,3.9c-1.6-0.8-0.3-1.7,0.3-2.4c2-2.2,5.6-2.8,8-4.6c3.8-2.8,9-3.7,13.9-5.1c4.7-1.3,9.4-3.1,12.8-6.7
			c2.1-2.1,4-6.7,7.6-6.4c2.9,0.2,7.1,4,9.4,5.7c1.7,1.2,1.6,2-0.8,1.9c-2.2-0.1-4.4-0.6-6.5-0.6c0,1.4-3.1,9.2-5.1,8.4
			c-1.1-0.5-0.3-3-1.4-3.9c-1-0.8-3.2-0.2-4.3,0.2c-3.4,1.3-6.4,3.4-9.3,5.5c-1.2,0.9-4.3,4.4-5.6,4.5c-2.9,0.1-0.7-3.4,0.2-4.8
			C170.2,146.3,165.5,148.5,162.4,150.8C160.1,152.5,164.2,149.4,162.4,150.8z M228.6,157.8c0,2.1,0.6,3.6-2.2,2.3
			c-2.1-1-4.2-2.7-6.3-3.9c-2.7-1.6-8.4-4.3-11.6-3.9c-3.6,0.4-6.2,4.5-4,7.5c1,1.3,2.6,2.3,4.1,3c0.6,0.3,2.4,0.6,2.8,1
			c1.2,1.2-0.1,2-1.7,2.1c-2.5,0-5.2-1.4-7.4-2.3c-3.6-1.4-7.5-2.6-11.4-2.7c-2.3-0.1-4.5,0.9-6.8,1.2c-1.8,0.2-4.8,0.9-6.5,0.4
			c-4.7-1.2,2.3-3,3.5-3.6c5.5-2.6,10.3-6.4,16.2-7.9c3.9-1,7.4-3.6,10.8-5.7c2.1-1.3,4.4-2.5,6.5-3.9c1.9-1.3,3.3-4,5.2-5
			c3.2-1.9,5.7,2.1,8.4,3.5c2.9,1.5,6.5,3.3,9.9,4.9c5,2.4,9.7,5.5,14.9,7.5c2.3,0.9,4.2,2.2,6.3,3.5c1.1,0.7,5,2.1,5.6,3.1
			c1.6,2.7-3.2,0.9-4.2,0.5c-2.1-0.8-4.2-1.4-6.1-2.1c-2.8-1-4.9-2-7.9-2.5c-3-0.5-5.1-1.6-7.8-2.9c-2.4-1.2-9.4-5.9-12.2-4.2
			c-1.4,0.9-1.3,4-0.9,5.2C226.1,154.5,228.6,156.1,228.6,157.8z"/>
		<g>
			<path class="st3" d="M86.9,332.5c-0.1-0.1-0.1-0.1-0.3-0.1c-0.1,0-0.3-0.1-0.4-0.2c-0.1-0.1-0.2,0-0.3,0l-0.2,0l-0.1,0.1
				c-0.1,0.1-0.1,0.2,0,0.4l0,0.1c-0.1,0.1-0.1,0.1-0.2,0.2l-0.1,0.1c-0.2,0.2-0.3,0.4-0.5,0.7c-0.1,0.1-0.2,0.2-0.2,0.3
				c0,0.1-0.2,0.2-0.2,0.3c0-0.2,0.1-0.4,0.2-0.8l0.1-0.3c0.1-0.4,0.2-0.8,0.3-1.2c0.1-0.1,0.2-0.1,0.2-0.3c0-0.1,0-0.3,0-0.3
				s-0.1-0.1-0.1-0.2c-0.2-0.2-0.4-0.3-0.7-0.4c-0.1-0.1-0.1-0.1-0.1-0.1l-0.1,0c-0.1,0-0.2,0-0.2,0l-0.1,0.1
				c-0.1,0.1-0.1,0.2-0.1,0.3l0,0.1c0,0.1-0.1,0.1-0.1,0.1c-0.2,0.3-0.3,0.5-2,2.6l-0.3,0.5c-0.1-0.1-0.2-0.1-0.3-0.1
				c-0.2,0-0.3,0.2-0.3,0.3c0,0.1,0,0.2,0.2,0.4l0.5,0.4c0.1,0,0.1,0.1,0.1,0.1s0.2,0.2,0.3,0.2c-0.1,0,0,0,0.1,0.1
				c0.2,0.1,0.4,0,0.5-0.1c0.1-0.2,0.1-0.4-0.1-0.6l0.9-1.2c0.1-0.1,0.2-0.2,0.2-0.3s0.2-0.2,0.2-0.3c0-0.1,0.1-0.1,0.2-0.2
				l-0.4,1.4c0,0.1-0.1,0.1,0,0.2s0,0.1,0,0.1c0,0.2-0.1,0.3-0.1,0.5c0,0.1,0,0.2-0.1,0.3l-0.1,0l-0.1,0.1c-0.1,0.1-0.2,0.2-0.2,0.4
				c0,0.2,0.3,0.3,0.3,0.3c0.1,0.1,0.3,0.2,0.5,0.3c0.1,0.1,0.1,0.1,0.2,0.2s0.1,0,0.2,0.2c0.1,0,0.3,0,0.4,0
				c0.1-0.1,0.2-0.3,0.1-0.4l0-0.1l0.1-0.1c0.3-0.3,0.5-0.7,0.8-1.1l0.1-0.1c0.2-0.2,0.3-0.4,0.4-0.6c0.1-0.1,0.2-0.3,0.3-0.4
				c0.1-0.1,0.2-0.3,0.3-0.4c0.2-0.2,0.3-0.4,0.4-0.6c0.1,0,0.2-0.1,0.3-0.2c0.1-0.1,0.1-0.3-0.1-0.5
				C87.1,332.6,87,332.5,86.9,332.5z M83.9,333.2C83.9,333.2,83.9,333.2,83.9,333.2C84,333.2,84,333.2,83.9,333.2z"/>
			<path class="st3" d="M76,301.3c0.3,0.2,0.6,0.4,0.7,0.5c-0.1,0.1,0.1,0.2,0.3,0.3c0,0,0.1,0.1,0.2,0.1c0.2,0.1,0.5,0.3,0.7,0.5
				c0.1,0.1,0.2,0.1,0.3,0.2l0.1,0.1l0.2,0c0.1,0,0.2-0.1,0.2-0.1l0.1-0.1l0-0.3l-0.1-0.1c0-0.1-0.1-0.1-0.1-0.1
				c0.2-0.2,0.4-0.6,0.7-0.9c0.4-0.5,0.8-1.1,0.9-1.1c0.2-0.3,0.4-0.6,0.7-0.9c0.1-0.1,0.2-0.3,0.3-0.5l0.1-0.1c0-0.2,0-0.4-0.2-0.5
				l-0.4-0.3c-0.1-0.1-0.3-0.2-0.5-0.3c-0.1-0.1-0.1-0.1-0.2-0.2l-0.1-0.1c-0.2-0.2-0.5-0.4-0.7-0.5c-0.3-0.2-0.5-0.2-0.9-0.2
				c-0.1,0-0.2,0.1-0.3,0.2c-0.1,0-0.2,0.1-0.1,0.4l0.1,0.1c0.1,0.1,0.2,0.2,0.3,0.2c0.1,0,0.2,0,0.3-0.1l0.1,0c0,0,0.1,0,0.1,0.1
				c0.1,0,0.3,0.1,0.3,0.2c0.2,0.2,0.3,0.3,0.5,0.4l-0.2,0.3c-0.1,0.1-0.2,0.2-0.2,0.3c-0.1,0.1-0.2,0.2-0.2,0.3l-0.1,0.2
				c-0.1,0.1-0.1,0.1-0.1,0.1l-0.7-0.5c-0.2-0.1-0.3,0-0.3,0c-0.1,0.1-0.3,0.2-0.2,0.4c0,0.2,0.1,0.2,0.3,0.3
				c0.2,0.1,0.3,0.2,0.5,0.4l-0.2,0.2c-0.1,0.1-0.2,0.2-0.2,0.3l-0.7,0.8l-0.1,0.1l-0.3-0.2c-0.3-0.2-0.5-0.3-0.8-0.5
				c-0.1-0.1-0.3-0.1-0.4-0.1c-0.1,0.1-0.2,0.1-0.2,0.3l0,0.1C75.8,301.1,75.8,301.2,76,301.3z"/>
			<path class="st3" d="M110.1,296.2c0.2,0.3,0.8,0.9,1.9,0.7c0.2,0,0.4-0.1,0.5-0.2c0.2-0.1,0.9-0.6,1-1.3c0-0.2,0-0.4,0-0.6
				c-0.2-0.5-0.2-0.6-0.3-0.7c-0.1-0.1-0.1-0.1-0.1-0.1l-0.1-0.1c-0.1-0.1-0.1-0.2-0.1-0.4c0-0.2,0.2-0.3,0.4-0.3
				c0.1,0,0.2-0.1,0.4,0c0.2,0,0.3,0,0.5,0.1l0.1,0c0.1,0.1,0.2,0.3,0,0.4c0,0,0,0,0,0.1l-0.2,0.2l0.1,0l0,0.1
				c0.1,0.1,0.1,0.1,0.1,0.2c0.1,0.1,0.4,0.1,0.5,0l0-0.1c0.1-0.1,0.1-0.1,0.1-0.2l0-0.1c0.1-0.5,0-0.9-0.2-1.2l-0.1-0.2
				c-0.1-0.1-0.2-0.2-0.3-0.3c-0.2-0.2-0.5-0.3-0.8-0.4c-0.7-0.2-1.6,0.2-1.9,1l-0.1,0.1c-0.1,0.4,0,0.9,0.4,1.1
				c0.1,0.2,0.3,0.3,0.5,0.6c0.1,0.2,0.1,0.3,0.1,0.4c0,0.2-0.1,0.3-0.3,0.4c-0.5,0.4-1.1,0.3-1.3,0.3c-0.1-0.1-0.2,0-0.3-0.2
				c-0.1-0.1-0.1-0.2,0.1-0.4c0.1-0.1,0.1-0.1,0.2-0.1l0.1-0.1l0-0.1c0.1-0.1,0.2-0.2,0.1-0.4c0-0.2-0.2-0.3-0.4-0.3l-0.2,0.1
				c-0.2,0.1-0.3,0.2-0.3,0.3l-0.1,0.1c-0.2,0.2-0.4,0.5-0.4,0.8c0,0.3,0,0.4,0.1,0.7L110.1,296.2z"/>
			<path class="st3" d="M71.7,295.7c-8.2,11.9-8.6,26.6-0.8,37.5c7.7,10.9,21.7,16.2,34.8,13.3c13.8-3.1,24.4-15.1,25.8-29.2
				c1.1-11.7-4.4-23.4-13.9-30.2c-1.5-1.1-3.1-2.1-4.8-2.8C99,277.7,81.7,282.5,71.7,295.7z M129.4,312.7c0.5,13-7.1,24.8-19.4,30.1
				c-10.4,4.5-21.5,3.3-30.1-2.9c-1.5-1.2-3-2.5-4.3-3.9c-9.9-10.3-10.7-26.3-1.9-38.9c8.1-10.7,20.4-15.8,32.1-13.2
				C118.9,286.6,128.8,298.8,129.4,312.7z"/>
			<path class="st3" d="M74.2,297c-7.1,10.5-7.2,23.7-0.1,33.8c6.9,9.7,19.3,14.5,31,11.8c12.1-2.8,21.4-13.4,22.4-25.7
				c0.9-10.3-3.8-20.3-12.2-26.2c-1.5-1.1-3.1-2.1-4.9-2.8C97.7,281.8,82.8,285.6,74.2,297z M76.2,298.1c4.1-5.5,10.2-9.3,16.9-10.7
				l1,6.1c-5.3,1-10.1,3.9-13.5,8.2c-3,4.4-4.2,9.8-3.6,15.1l-5.8,0.9C70.6,310.7,72.3,303.9,76.2,298.1z M96.5,318.1l-5.4,7.5
				c-0.2,0.3,0.1,0.6,0.2,0.7c0.4,0.3,0.7,0.5,1,0.7c0.1,0.1,0.1,0.1,0.2,0.1c-0.1,0-0.2,0.1-0.4,0.1c-0.2,0.1-0.5,0.2-0.9,0.3
				l-3.1,0.9l-0.1-4.4l0.2,0.2c0,0,0.9,0.6,1.4,0.5c0.2,0,0.3-0.1,0.4-0.2l5-7.1C95.5,317.5,96,317.9,96.5,318.1z M95.6,314.2
				c0-0.2,0.1-0.4,0.1-0.6c0.1-0.4,0.3-0.8,0.5-1.1c0.1-0.1,0.2-0.3,0.3-0.3c0.2-0.1,0.3-0.3,0.5-0.4c0.3-0.2,0.5-0.3,0.8-0.4
				c0.5-0.2,0.9-0.1,1.3-0.1c0.6,0,1,0.4,1.3,1c0.1,0.1,0.1,0.1,0.1,0.2l0,0.1c0.2,0.5,0.3,1,0.3,1.5l0,0.1l0,0.1
				c0,0.4-0.1,0.8-0.3,1.1c-0.1,0.3-0.2,0.5-0.3,0.6s-0.2,0.3-0.4,0.4l-0.1,0.1c-0.4,0.3-0.8,0.6-1.3,0.7c-0.4,0.1-0.7,0.1-1.1,0
				c-0.6-0.1-1.1-0.5-1.5-1c0,0,0-0.1-0.1-0.1l-0.1-0.1c-0.2-0.5-0.3-1-0.3-1.6L95.6,314.2L95.6,314.2z M94.1,311.4
				c0,0.2-0.2,0.4-0.3,0.6l-2.2-2.3l2.7,1.4C94.3,311.2,94.2,311.3,94.1,311.4z M92.1,312.9l-6.4-0.1c-0.4,0-0.6,0.1-0.8,0.3
				c-0.1,0.2-0.1,0.4,0,0.7c0.2,0.4,0.7,0.7,1.2,0.8l4,0.1l-9.2,1.7c-0.2,0-0.4,0.2-0.3,0.4c0.1,0.4,1.3,1,1.7,0.9l7.6-1.4l-3.7,1.5
				l-0.2,0.1l0,0.2c0,0.2,0.1,0.4,0.3,0.5c0.3,0.3,1.1,0.7,1.6,0.5l4.4-1.8l-3.9,5.6l-0.7-0.5c-0.3-0.4-1.2-0.7-1.7-0.5
				c-0.2,0.1-0.4,0.2-0.3,0.5l0.2,7.2c0,0.2,0.1,0.4,0.3,0.5c0.4,0.3,1.2,0.5,1.5,0.4l6.9-2.1c0.3-0.1,0.3-0.3,0.3-0.3
				c0-0.2-0.1-0.4-0.2-0.5c-0.3-0.2-0.5-0.4-0.7-0.5c-0.5-0.3-0.6-0.4-0.6-0.8c0-0.4,0.9-1.4,1.4-1.9c0.2-0.3,0.5-0.5,0.5-0.6
				l2.1-2.9l0.5,5.7c0.1,0.6,1,1,1.5,1c0.4,0,0.7-0.3,0.7-0.7l-0.2-2.3l1.7,5.9c0.1,0.4,0.7,0.6,1.1,0.7c0.5,0.1,0.8,0.1,1,0
				l0.1-0.2l-2.2-7.6l0.8,1.6c0.2,0.5,1.2,0.6,1.6,0.7c0.2,0,0.4,0,0.5-0.2l0.1-0.2l-1.9-3.7l10,5.2c0.1,0.1,0.2,0,0.3,0
				c-3.6,4.3-8.9,7-14.6,7.3c-5.8,0.2-11-1.9-14.7-6.2c-6-7-6.5-17-1.2-24.9c0.2-0.2,0.3-0.4,0.5-0.6c0.2,0.2,0.3,0.5,0.8,1.4
				c0.5,1.1,1.3,2.1,2,2.9L92.1,312.9z M102,317.2c0.1-0.1,0.2-0.3,0.3-0.4c0.1-0.1,0.2-0.3,0.3-0.5l2.4,2.4L102,317.2z
				 M111.1,322.3l-6.6-6.8l6.3,0.3c0.4,0,0.6-0.1,0.7-0.3c0.1-0.1,0.2-0.3,0-0.6c-0.2-0.4-0.7-0.8-1.2-0.8l-4.1-0.2l9.4-1.3
				c0.2,0,0.4-0.2,0.3-0.4c0-0.4-1.3-1-1.7-1l-7.9,1.1l4-1.4l0.3-0.2l-0.1-0.2c-0.1-0.4-1.3-1.1-1.9-0.9l-4.4,1.5l8-11
				c0.3,0.3,0.6,0.7,0.9,1c5.7,6.9,6,17.2,0.7,24.4c-0.1,0.2-0.3,0.3-0.4,0.5c0-0.2-0.1-0.6-0.4-1.2
				C112.5,324.1,111.9,323.1,111.1,322.3z M109.4,300.3l-7.8,10.9c-0.4-0.3-0.9-0.7-1.5-0.9l8.9-12.8c0.5,0.3,0.9,0.7,1.4,1
				C110.4,298.9,109.9,299.4,109.4,300.3z M99.2,307.7l-0.4-5.8c0-0.3-0.2-0.6-0.6-0.8c-0.4-0.2-1-0.3-1.3-0.1
				c-0.2,0.1-0.3,0.3-0.3,0.6l0.1,2.2l-1.5-5.9c-0.1-0.4-0.6-0.6-1-0.7s-0.8-0.2-1.1,0l-0.1,0.2l2,7.5l-0.8-1.5
				c-0.2-0.5-1.1-0.6-1.6-0.7c-0.2,0-0.4,0-0.5,0.2l-0.1,0.2l1.9,3.9l-10.2-5.3c-0.1-0.1-0.3,0-0.3,0c6.1-7,16-9.2,23.7-5.3
				L99.2,307.7z M81.3,335.8c-5.2-4.1-8.6-10-9.8-16.6l5.8-0.9c1.3,6,5.1,11.1,10.6,14.1c3.9,2.2,8.4,3.1,12.9,2.6l1,6.1
				C94.5,342.3,87,340.3,81.3,335.8z M120.3,330.1c-0.3,0.5-0.7,0.9-1.1,1.4c0-0.1-0.1-0.1-0.1-0.1c0,0,0,0-0.1-0.1
				c0.1-0.1,0.1-0.1,0.1-0.2l0.2-0.3c0.1-0.1,0.2-0.3,0.3-0.5l0.1-0.1c0.1-0.2,0.2-0.4,0.5-0.9l0.1-0.1c0.2-0.3,0.5-1,0.6-1
				c0.1-0.1,0.2-0.3,0.2-0.4l0-0.2c0.1-0.1,0-0.3,0-0.4l-0.1-0.1l-0.3-0.1l-0.1,0c-0.1-0.1-0.1-0.1-0.1-0.1
				c-0.1-0.1-0.3-0.2-0.5-0.2c-0.1,0-0.2,0.1-0.2,0.1c0,0-0.1,0.1-0.1,0.1l-0.2,0.1c-0.1,0.1-0.1,0.1-0.2,0.1
				c-0.1,0-0.1,0.1-0.1,0.1c-0.1,0-0.1,0.1-0.1,0.1s-0.1,0.1-0.1,0.1l0.1-0.1c0-0.2,0.2-0.4,0.2-0.5l0-0.2c0.1-0.1,0.1-0.3,0.2-0.4
				c0-0.2,0-0.4-0.1-0.5l-0.1-0.1l-0.1-0.1l-0.2-0.1c-0.3-0.2-0.6-0.4-0.8-0.1l-0.1,0.1c-0.2,0.1-0.3,0.3-0.5,0.4
				c-0.1,0.1-0.2,0.1-0.2,0.2l-0.2,0.1c-0.1,0-0.1,0.1-0.2,0.1c-0.2,0.1-0.3,0.3-0.4,0.4l-0.1,0.1c-0.1,0.1-0.1,0.1-0.2,0.1
				l-1.3,1.2c0,0,0,0-0.1,0l-0.1-0.1c-0.2-0.1-0.3,0-0.4,0c-0.1,0.1-0.2,0.3-0.1,0.4l0,0.1l0.1,0.1c0.3,0.2,1.1,0.8,1.3,0.9
				c0.1,0,0.1,0.1,0.1,0.1c0.2,0,0.4,0,0.4-0.2c0-0.2,0-0.4-0.2-0.5l-0.1,0c0.1-0.1,0.3-0.2,0.5-0.5c0.2-0.2,0.4-0.3,0.6-0.6
				c0.1-0.1,0.1-0.1,0.2-0.1c0.1-0.1,0.2-0.1,0.2-0.2c0.1-0.1,0.3-0.3,0.5-0.4c0.1-0.1,0.2-0.1,0.2-0.2c-0.1,0.1,0,0.1-0.1,0.3
				c0,0.2-0.2,0.4-0.2,0.5c-0.1,0.1-0.1,0.2-0.1,0.2c0,0.1-0.2,0.3-0.2,0.4l0,0.1c-0.1,0.1,0,0.3,0,0.3c0,0.1,0.1,0.2,0.3,0.3
				c0.1,0,0.3,0,0.4-0.2c0.1-0.1,0.1-0.1,0.3-0.3c0.1-0.1,0.2-0.1,0.3-0.3l-0.2,0.3c0,0.1-0.1,0.1-0.1,0.1c-0.1,0.1-0.1,0.2-0.1,0.3
				l-0.3,0.6c-0.1,0.2-0.2,0.3-0.3,0.5l-0.1,0.1l-0.1,0.1c-0.1-0.1-0.3,0-0.4,0l-0.2,0l0,0.2c-0.1,0.1,0,0.3,0.2,0.4
				c0.1,0.1,0.5,0.3,0.5,0.4l0.1,0.1c0.3,0.2,0.5,0.3,0.7,0.4c-3.9,4.5-9.3,7.7-15.3,8.9l-1-6.1c5.5-1,10.3-3.9,13.5-8.3
				c3.1-4.3,4.4-9.7,3.6-15.1l5.7-0.9C126,317.6,124.3,324.5,120.3,330.1z M115.2,292.4c5.1,4.1,8.6,9.9,9.8,16.6l-5.8,0.9
				c-1-4.2-3.2-8.2-6.4-11c-1-1-2.2-1.8-3.3-2.5c-0.1-0.1-0.1-0.1-0.3-0.2l-0.3-0.2c-0.1-0.1-0.3-0.2-0.5-0.3
				c-0.1-0.1-0.2-0.1-0.3-0.2s-0.1,0-0.2-0.1c-3.9-2-8.2-2.8-12.4-2.4l-1-6.1C102.1,285.9,109.3,287.8,115.2,292.4z"/>
			
				<ellipse transform="matrix(0.5849 -0.8111 0.8111 0.5849 -234.2213 200.9665)" class="st3" cx="79.2" cy="329.3" rx="1.7" ry="1.7"/>
			
				<ellipse transform="matrix(0.5849 -0.8111 0.8111 0.5849 -230.4498 195.3374)" class="st3" cx="75.6" cy="322.8" rx="1.7" ry="1.7"/>
			<path class="st3" d="M75,310.1c-0.3-0.3-0.8-0.4-1.3-0.3c-0.5,0.2-0.9,0.5-1.1,0.8c-0.3,0.4-0.4,0.8-0.3,1.3c0.1,0.9,1,1.6,2,1.4
				c0.9-0.1,1.6-1,1.4-2C75.6,310.8,75.3,310.4,75,310.1z"/>
			<path class="st3" d="M77.7,304.2c-0.1-0.5-0.3-0.8-0.7-1.1c-0.3-0.3-0.8-0.4-1.3-0.3c-0.4,0.1-0.8,0.3-1.1,0.7
				c-0.3,0.4-0.4,0.8-0.3,1.3c0.1,0.4,0.3,0.8,0.7,1.1c0.4,0.3,0.8,0.4,1.3,0.3c0.4-0.2,0.8-0.4,1.1-0.7
				C77.6,305.1,77.7,304.7,77.7,304.2z"/>
			<path class="st3" d="M81.7,296.8c0.8,0.5,1.8,0.4,2.4-0.4c0.3-0.4,0.4-0.8,0.3-1.3c-0.1-0.4-0.3-0.8-0.7-1.1
				c-0.4-0.3-0.8-0.4-1.3-0.3c-0.4,0.1-0.8,0.3-1.1,0.7C80.7,295.1,81,296.2,81.7,296.8z"/>
			<path class="st3" d="M88.1,293c0.8,0.5,1.8,0.3,2.4-0.4c0.3-0.4,0.4-0.8,0.3-1.3s-0.3-0.8-0.7-1.1c-0.4-0.3-0.8-0.4-1.3-0.3
				c-0.4,0.1-0.8,0.3-1.1,0.7c-0.3,0.4-0.4,0.8-0.3,1.3C87.5,292.4,87.8,292.8,88.1,293z"/>
			<path class="st3" d="M99.3,291.2c0.4,0.3,0.8,0.4,1.3,0.3c0.4-0.1,0.8-0.3,1.1-0.7c0.3-0.4,0.4-0.8,0.3-1.3
				c0-0.4-0.3-0.8-0.7-1.1c-0.3-0.3-0.8-0.4-1.3-0.3c-0.9,0.1-1.5,1.1-1.4,2C98.7,290.6,98.9,291,99.3,291.2z"/>
			<path class="st3" d="M106.5,293.1c0.4,0.3,0.8,0.4,1.3,0.3c0.9-0.1,1.5-1.1,1.4-2c-0.1-0.4-0.3-0.8-0.7-1.1
				c-0.4-0.3-0.8-0.4-1.3-0.3c-0.4,0.1-0.8,0.3-1.1,0.7c-0.3,0.4-0.4,0.8-0.3,1.3C105.9,292.4,106.1,292.8,106.5,293.1z"/>
			<path class="st3" d="M115.8,299.7c0.4,0.3,0.8,0.4,1.3,0.3c0.4-0.1,0.8-0.3,1.1-0.7s0.4-0.8,0.3-1.3c-0.1-0.4-0.3-0.8-0.7-1.1
				c0,0,0,0-0.1-0.1c-0.8-0.5-1.8-0.3-2.4,0.5C114.8,298.1,115,299.2,115.8,299.7z"/>
			<path class="st3" d="M119.6,306.1c0.8,0.5,1.8,0.3,2.4-0.5c0.5-0.8,0.3-1.8-0.4-2.3c0,0,0,0-0.1-0.1c-0.8-0.5-1.8-0.3-2.4,0.5
				c-0.3,0.4-0.4,0.8-0.3,1.3C119,305.4,119.2,305.8,119.6,306.1z"/>
			<path class="st3" d="M121.6,317.2c0.4,0.3,0.8,0.4,1.3,0.3c0.4,0,0.8-0.3,1.1-0.7c0.3-0.4,0.4-0.8,0.3-1.3
				c-0.1-0.4-0.3-0.8-0.7-1.1c-0.4-0.3-0.8-0.4-1.3-0.3c-0.9,0.2-1.5,1.1-1.3,2C121,316.5,121.2,316.9,121.6,317.2z"/>
			<path class="st3" d="M119.1,323.3c0.1,0.4,0.3,0.8,0.7,1.1c0.4,0.3,0.8,0.4,1.3,0.3c0.4-0.1,0.8-0.3,1.1-0.7
				c0.3-0.4,0.4-0.8,0.3-1.3c-0.1-0.4-0.3-0.8-0.7-1.1c-0.4-0.3-0.8-0.4-1.3-0.3C119.5,321.5,118.9,322.4,119.1,323.3z"/>
			<path class="st3" d="M113,331.4c-0.5,0.8-0.3,1.8,0.5,2.4c0.8,0.5,1.8,0.3,2.4-0.5c0.5-0.8,0.3-1.8-0.4-2.3l-0.1-0.1
				C114.5,330.4,113.5,330.6,113,331.4z"/>
			<path class="st3" d="M109.1,334.9L109.1,334.9c-0.9-0.5-1.9-0.3-2.4,0.5c-0.3,0.4-0.4,0.8-0.3,1.3c0.1,0.4,0.3,0.8,0.7,1.1
				c0.8,0.5,1.8,0.3,2.4-0.5C110,336.4,109.9,335.5,109.1,334.9z"/>
			<path class="st3" d="M97.9,337.1L97.9,337.1c-0.5-0.3-0.9-0.4-1.3-0.3c-0.9,0.2-1.5,1.1-1.3,2c0.1,0.9,1.1,1.5,2,1.3
				c0.9-0.2,1.5-1.1,1.3-2C98.5,337.6,98.3,337.3,97.9,337.1z"/>
			<path class="st3" d="M90.7,335.5L90.7,335.5c-0.5-0.3-0.9-0.4-1.3-0.3c-0.4,0.1-0.8,0.4-1.1,0.7c-0.3,0.4-0.4,0.8-0.3,1.3
				c0.2,1,1.1,1.6,2,1.4c0.9-0.2,1.5-1.1,1.3-2C91.3,336,91,335.7,90.7,335.5z"/>
			<path class="st3" d="M186,262.9c-4.9,1.1-6.7,5.1-10.2,8.1c-6.4,5.4-19.3-0.2-24.9-4.9c-3.4-2.9-6.1-5.8-11-4.8
				c-1.9,0.4-3.5,1.3-4.7,2.5c-5-3.5-11.1-2.8-16.9,2.1c-4.9,4.9-3.4,10.1-0.2,13.5l-0.3,0.5c-0.1,0.1-0.1,0.4,0.2,0.5l0.8,0.5
				c-0.1,0.2-0.2,0.3-0.3,0.5l-0.5-0.4c-0.2-0.2-0.7-0.4-1,0l-1.6,2.2c-1.2-0.6-2.2-1.2-3.2-1.6c-15.2-6.5-32.9-1.7-43,11.6
				c-9.5,13.6-9.3,31.3,0.4,42.9c8.5,10.2,23.2,15.1,37.5,12.4c16.2-3,27.6-16.3,27.7-32.2c0.1-10.6-4.7-21.3-12.8-28.5l1.6-2.3
				c0.2-0.2,0.1-0.6-0.1-0.7l-0.8-0.5c0.2-0.1,0.3-0.3,0.5-0.4l0.4,0.3c0.3,0.2,0.8,0.4,1.1,0.1l0.6-0.8c5.3,1.6,10.2,0.3,13.2-3.4
				c2-2.4,2.8-5,2.5-7.8c-0.3-2.6-1.5-5-3.6-7.1c1.7-1.6,4.2-2.3,6.4-1.6c1.6,0.5,2.3,1.3,3.4,2.3c1.6,1.5,3.2,2.9,5.1,4
				c4,2.3,8.8,4.1,13.4,4.9c3.4,0.6,6.9,0.5,9.9-1.3c4.1-2.4,6.1-7.8,10.9-8.9C188.4,264.6,187.8,262.5,186,262.9z M132.5,314.2
				c0.6,13.9-7.1,26.1-19.8,31.2c-12.1,4.9-26,3.1-35.7-4c-2.8-2-5.2-4.4-7.2-7.2c-7.8-11.3-7.4-27.3,1.3-39.9
				c8.9-11.8,24-16.9,37.5-12.5C122.1,286.1,131.9,299.4,132.5,314.2z M120.9,287.2c-1.3-1.1-2.9-2.2-4.4-3.1l1.2-1.7l0.6,0.4
				c0.1,0.6,0.5,1.2,1.1,1.6c0.6,0.5,1.4,0.7,2,0.6l0.7,0.5L120.9,287.2z M122.2,282.9c0,0.1-0.1,0.1,0,0.1s-0.1,0.1-0.1,0.1
				c-0.1,0.1,0,0.1-0.1,0.2c-0.2,0.2-0.3,0.4-0.6,0.5c-0.2,0.1-0.4,0.1-0.6,0.1c-0.2,0-0.4-0.1-0.5-0.2c-0.1-0.1-0.1-0.1-0.2-0.2
				s-0.1-0.1-0.1-0.2l0-0.1c-0.1-0.3-0.1-0.5-0.1-0.7c0-0.3,0.1-0.6,0.3-0.9l0.1-0.1c0,0,0.1-0.1,0.1-0.1c0.1-0.1,0.2-0.1,0.4-0.2
				c0.3-0.2,0.8-0.4,1.3,0.1c0.3,0.2,0.4,0.6,0.4,1C122.3,282.6,122.2,282.7,122.2,282.9z M123.8,283.4L123.8,283.4
				c0-0.2,0-0.4,0.1-0.6c0.1-0.6-0.1-1.2-0.5-1.7c-0.4-0.5-1-0.9-1.7-1c-0.7-0.2-1.3-0.1-1.9,0.2c-0.1,0.1-0.2,0.1-0.2,0.1
				c-0.2,0-0.3-0.1-0.3-0.2l0.1-0.1c0.2-0.3,0.4-0.6,0.7-0.9l1.9-2.7l1.5,1c0.3,0.2,0.7,0.4,1.1,0.6c0.7,0.4,1.5,0.9,1.9,1.4
				c-0.3,0.3-0.5,0.7-0.7,1L123.8,283.4z M136.5,279.2c-2.5,2.9-6.2,4-10.3,3.1l1.5-2.1c0.1-0.1,0.1-0.4-0.2-0.5l-5.5-4
				c0.1-0.1-0.7-0.6-1.1-0.1l-1.7,2.4c-2.8-3.5-2.4-7.4,0.9-10.7c4.9-4.1,9.9-4.9,13.9-2.1c-0.8,1.1-1.3,2.4-1.7,3.8
				c-0.4,1.5,2.6,1.2,2.9-0.2c0.2-0.6,0.4-1.2,0.8-1.8C139.5,270.6,139.6,275.6,136.5,279.2z"/>
			<path class="st3" d="M289.9,244.9c-6.9,0.7-7.5,8.2-11.3,12.7c-4.8,5.6-14.6,6.4-21.3,4c-4.3-1.5-7.7-3.6-12.4-3.3
				c-0.9,0.1-3.1,1.5-1.2,1.4c6-0.4,10.9,3.9,16.8,4.4c4.2,0.4,8.8-0.2,12.8-1.4c3.2-0.9,5.8-2.7,7.9-5.2c2.2-2.8,4.4-10.9,8.2-11.3
				C290.7,246.1,291.9,244.7,289.9,244.9z"/>
		</g>
	</g>
</g>
</svg>
